<svg width="29" height="32" viewBox="0 0 29 32" fill="none" xmlns="http://www.w3.org/2000/svg">
<path d="M19.28 8.90918H4.43455C4.18268 8.90918 3.97852 9.11334 3.97852 9.36522C3.97852 9.6171 4.18268 9.82126 4.43455 9.82126H19.28C19.5319 9.82126 19.7361 9.6171 19.7361 9.36522C19.7361 9.11334 19.5319 8.90918 19.28 8.90918Z" fill="white"/>
<path d="M4.43455 6.6572H11.8572C12.1091 6.6572 12.3133 6.45303 12.3133 6.20116C12.3133 5.94928 12.1091 5.74512 11.8572 5.74512H4.43455C4.18268 5.74512 3.97852 5.94928 3.97852 6.20116C3.97852 6.45309 4.18268 6.6572 4.43455 6.6572Z" fill="white"/>
<path d="M19.28 11.7119H4.43455C4.18268 11.7119 3.97852 11.9161 3.97852 12.168C3.97852 12.4198 4.18268 12.624 4.43455 12.624H19.28C19.5319 12.624 19.7361 12.4198 19.7361 12.168C19.736 11.9161 19.5319 11.7119 19.28 11.7119Z" fill="white"/>
<path d="M7.81744 28.3969H3.06651C2.28672 28.3969 1.65225 27.7625 1.65225 26.9827V2.8917C1.65225 2.11192 2.28672 1.47745 3.06651 1.47745H16.7535C16.7977 1.47745 16.8412 1.4815 16.8843 1.48732V4.33145C16.8843 5.61419 17.9279 6.65772 19.2105 6.65772H22.0546C22.0605 6.70083 22.0645 6.74436 22.0645 6.78856V14.5544C22.0645 14.8062 22.2686 15.0104 22.5205 15.0104C22.7724 15.0104 22.9766 14.8062 22.9766 14.5544V6.78862C22.9766 6.28838 22.7817 5.81805 22.428 5.46428L18.0777 1.11398C17.724 0.76027 17.2537 0.56543 16.7535 0.56543H3.06651C1.78376 0.56543 0.740234 1.60902 0.740234 2.8917V26.9827C0.740234 28.2654 1.78382 29.3089 3.06651 29.3089H7.81744C8.06931 29.3089 8.27348 29.1047 8.27348 28.8529C8.27348 28.601 8.06931 28.3969 7.81744 28.3969ZM21.4196 5.7457H19.2106C18.4308 5.7457 17.7963 5.11123 17.7963 4.33145V2.12245L21.4196 5.7457Z" fill="white"/>
<path d="M28.1221 22.8909L24.2581 16.3688C23.9765 15.8932 23.3637 15.7361 22.8879 16.0179L21.948 16.5748C21.2185 17.0069 20.9101 17.8815 21.1606 18.6566C20.844 18.7713 20.4968 18.7695 20.1771 18.646C19.435 18.4125 18.8709 17.9428 17.9391 18.1785C16.357 18.5813 16.4051 18.5611 16.262 18.6102C15.3356 18.0827 14.7787 17.9258 13.7953 18.3062L12.9187 18.6451C12.5129 18.8019 12.0657 18.7647 11.6907 18.5425L11.4515 18.4015C11.5682 17.7021 11.258 16.964 10.6012 16.5749C10.6012 16.5749 10.6012 16.5749 10.6011 16.5748L9.66132 16.018C9.18688 15.737 8.57221 15.8943 8.29115 16.3688L4.42705 22.891C4.14544 23.3664 4.30214 23.9794 4.77779 24.2611L5.7176 24.8179C6.00199 24.9864 6.31453 25.0665 6.62332 25.0665C6.96765 25.0665 7.30714 24.9667 7.5974 24.7788L7.79327 24.8944L7.37974 25.4704C6.88694 26.1569 7.04352 27.1114 7.73012 27.6043C8.04763 27.8322 8.44651 27.9363 8.85902 27.8715C8.92447 28.2541 9.13408 28.6122 9.47351 28.8559C9.79229 29.0848 10.1894 29.189 10.6026 29.1239C10.6682 29.5062 10.8777 29.864 11.217 30.1075C11.6729 30.4348 12.2397 30.4726 12.712 30.2709C12.8154 30.5394 12.995 30.7818 13.2456 30.9617C13.9 31.4314 14.8015 31.3089 15.3099 30.7004L16.4088 31.3514C17.1356 31.7821 18.0733 31.5427 18.5042 30.8151C18.6144 30.6291 18.6827 30.4264 18.7078 30.2181L18.7102 30.2196C19.4359 30.6494 20.3757 30.4088 20.8056 29.6833C20.9301 29.4731 20.9983 29.2452 21.0149 29.0167C21.6545 29.1775 22.3516 28.9089 22.7046 28.3131C22.8204 28.1177 22.8875 27.9065 22.9096 27.6941C23.5952 27.9631 24.3964 27.7031 24.7835 27.0497C24.9917 26.6982 25.0506 26.2867 24.9494 25.8909C24.8914 25.6645 24.7848 25.4589 24.6386 25.2853L25.2443 24.9314C25.7567 25.1418 26.3414 25.1081 26.8315 24.8179L27.7712 24.2611C28.2469 23.9795 28.404 23.3666 28.1221 22.8909ZM6.18248 24.0333L5.24267 23.4764C5.2009 23.4517 5.18703 23.3976 5.21173 23.3558L9.07583 16.8335C9.10072 16.7915 9.15503 16.7779 9.19657 16.8026L10.1363 17.3593C10.5539 17.6068 10.6846 18.1424 10.4417 18.5523L7.3755 23.7279C7.13077 24.1411 6.59565 24.278 6.18248 24.0333ZM8.26196 26.8634C7.98502 26.6645 7.92169 26.2793 8.12065 26.0023L8.72848 25.1556C8.92211 24.8859 9.30797 24.812 9.58958 25.0142C9.86597 25.2126 9.92936 25.5989 9.73101 25.8753L9.12312 26.7219C8.92471 26.9985 8.53824 27.0617 8.26196 26.8634ZM10.0054 28.1151C9.72902 27.9166 9.66562 27.5302 9.86403 27.2539L10.4719 26.4073C10.4719 26.4073 10.4719 26.4073 10.4719 26.4072C10.4719 26.4072 10.4719 26.4072 10.4719 26.4072L11.1427 25.4728C11.2389 25.3389 11.3813 25.2504 11.544 25.2238C11.5778 25.2182 11.6116 25.2155 11.6452 25.2155C11.7732 25.2155 11.8977 25.2553 12.0038 25.3314C12.1376 25.4276 12.2262 25.57 12.2528 25.7326C12.2795 25.8953 12.2413 26.0586 12.1451 26.1925L10.8664 27.9736C10.6677 28.2506 10.2825 28.314 10.0054 28.1151ZM11.7489 29.3666C11.4726 29.1683 11.4091 28.7822 11.6072 28.5059C11.6072 28.5058 11.6074 28.5056 11.6074 28.5055L12.8861 26.7244C13.0844 26.4481 13.4709 26.3846 13.7472 26.583C14.0236 26.7814 14.087 27.1677 13.8886 27.4441L13.3205 28.2355C13.3205 28.2355 13.3205 28.2355 13.3204 28.2356L12.6099 29.2252C12.4115 29.5016 12.0253 29.5652 11.7489 29.3666ZM13.7775 30.2208C13.5013 30.0225 13.4378 29.6366 13.6357 29.3602L14.0613 28.7675C14.2597 28.491 14.6461 28.4278 14.9224 28.6261C15.1988 28.8244 15.2622 29.2108 15.0638 29.4872L14.6386 30.0794C14.4402 30.3558 14.0538 30.4193 13.7775 30.2208ZM23.999 26.5849C23.8255 26.8777 23.4462 26.9748 23.1533 26.8014C22.6573 26.5075 19.4577 24.612 19.1166 24.4099C18.8999 24.2815 18.6202 24.353 18.4918 24.5697C18.3635 24.7864 18.435 25.0662 18.6517 25.1945L21.7034 27.0025L21.7035 27.0026C21.9965 27.1761 22.0942 27.5542 21.92 27.8484C21.7464 28.1413 21.367 28.2383 21.0742 28.0649C19.9455 27.3962 19.029 26.8533 18.0208 26.256C17.804 26.1276 17.5244 26.1991 17.396 26.4158C17.2676 26.6325 17.3392 26.9122 17.5558 27.0406L19.8044 28.3727L19.8049 28.3731C20.0981 28.5471 20.1948 28.9251 20.021 29.2186C19.8474 29.5116 19.4681 29.6086 19.1751 29.4351L17.9684 28.7202C17.9682 28.7202 17.9681 28.7201 17.9679 28.72C17.9678 28.7199 17.9677 28.7199 17.9676 28.7198L17.0869 28.198C16.8702 28.0696 16.5905 28.1411 16.4621 28.3579C16.3338 28.5746 16.4053 28.8543 16.622 28.9826L17.5028 29.5045C17.5029 29.5046 17.5031 29.5047 17.5032 29.5047C17.7962 29.6783 17.8939 30.0563 17.7197 30.3505C17.5461 30.6434 17.1668 30.7405 16.8738 30.567L15.8462 29.9583C16.2867 29.2786 16.1192 28.3626 15.4543 27.8854C15.2591 27.7453 15.0416 27.6581 14.8193 27.6206C15.0551 26.9899 14.8518 26.2535 14.2791 25.8424C13.94 25.5989 13.534 25.5148 13.1509 25.5748C13.0827 25.1761 12.8647 24.8269 12.5357 24.5908C11.9171 24.1468 11.0763 24.2321 10.557 24.7575C10.4515 24.5722 10.3058 24.4059 10.1215 24.2736C9.60738 23.9046 8.93991 23.9012 8.43095 24.212L8.222 24.0886L11.0901 19.2474L11.2266 19.3279C11.8297 19.6851 12.5656 19.7596 13.2476 19.4958L14.1242 19.157C14.6258 18.9631 14.9024 18.9504 15.3986 19.1846C15.074 19.5493 14.8813 20.0282 14.8813 20.5443V22.5662C14.8813 23.1033 15.3179 23.5405 15.8545 23.5409H15.8558C16.3941 23.5409 16.9002 23.3313 17.281 22.9508C17.503 22.7289 17.6668 22.4645 17.765 22.1758C18.3539 22.5245 23.2186 25.4052 23.7826 25.7394C23.9245 25.8234 24.0251 25.9577 24.066 26.1174C24.1068 26.2769 24.083 26.443 23.999 26.5849ZM27.3066 23.4764L26.3667 24.0333C25.9535 24.2779 25.4184 24.1409 25.1738 23.728L23.7367 21.3021C23.6082 21.0854 23.3284 21.0139 23.1119 21.1422C22.8952 21.2705 22.8236 21.5503 22.9519 21.767L24.389 24.1928C24.4161 24.2385 24.4455 24.2819 24.4759 24.3242L24.0763 24.5576C23.9956 24.6055 23.9179 24.6581 23.8436 24.7154L17.6482 21.0465C17.3447 20.8669 16.9599 21.0859 16.9599 21.4389C16.9551 21.4661 17.007 21.9349 16.6363 22.3055C16.4277 22.5138 16.1506 22.6286 15.8558 22.6286C15.8555 22.6286 15.8553 22.6286 15.855 22.6286C15.8209 22.6286 15.7932 22.6005 15.7932 22.566V20.544C15.7932 20.0158 16.1566 19.5702 16.6481 19.4458L18.1627 19.0625C18.7123 18.9236 19.023 19.217 19.8459 19.4955C20.4171 19.7165 21.0383 19.7029 21.5896 19.4675L21.8648 19.9321C21.9933 20.1489 22.273 20.2204 22.4896 20.0921C22.7063 19.9637 22.7779 19.684 22.6496 19.4673L22.1075 18.5522C21.8622 18.1382 21.9988 17.6047 22.4128 17.3593L23.3526 16.8025C23.3937 16.7781 23.448 16.7906 23.4734 16.8335L27.3374 23.3557C27.3623 23.3977 27.3486 23.4516 27.3066 23.4764Z" fill="white"/>
</svg>
