<svg width="27" height="29" viewBox="0 0 27 29" fill="none" xmlns="http://www.w3.org/2000/svg">
<path d="M17.9725 7.80518H4.08482C3.8492 7.80518 3.6582 7.99617 3.6582 8.23179C3.6582 8.46742 3.8492 8.65841 4.08482 8.65841H17.9725C18.2082 8.65841 18.3992 8.46742 18.3992 8.23179C18.3992 7.99617 18.2081 7.80518 17.9725 7.80518Z" fill="black"/>
<path d="M4.08482 5.69943H11.0286C11.2642 5.69943 11.4552 5.50843 11.4552 5.27281C11.4552 5.03718 11.2642 4.84619 11.0286 4.84619H4.08482C3.8492 4.84619 3.6582 5.03718 3.6582 5.27281C3.6582 5.50849 3.8492 5.69943 4.08482 5.69943Z" fill="black"/>
<path d="M17.9725 10.4272H4.08482C3.8492 10.4272 3.6582 10.6182 3.6582 10.8539C3.6582 11.0895 3.8492 11.2805 4.08482 11.2805H17.9725C18.2082 11.2805 18.3992 11.0895 18.3992 10.8539C18.3991 10.6182 18.2081 10.4272 17.9725 10.4272Z" fill="black"/>
<path d="M7.24756 26.0359H2.80314C2.07367 26.0359 1.48013 25.4424 1.48013 24.7129V2.17619C1.48013 1.44671 2.07367 0.853178 2.80314 0.853178H15.6071C15.6484 0.853178 15.6892 0.856973 15.7294 0.86241V3.52305C15.7294 4.72304 16.7057 5.69924 17.9056 5.69924H20.5662C20.5717 5.73956 20.5754 5.78029 20.5754 5.82164V13.0864C20.5754 13.322 20.7664 13.513 21.0021 13.513C21.2377 13.513 21.4287 13.322 21.4287 13.0864V5.82169C21.4287 5.35373 21.2464 4.91374 20.9155 4.58279L16.8459 0.513164C16.515 0.18227 16.0751 0 15.6071 0H2.80314C1.60315 0 0.626953 0.976258 0.626953 2.17619V24.7129C0.626953 25.9129 1.60321 26.8891 2.80314 26.8891H7.24756C7.48319 26.8891 7.67418 26.6981 7.67418 26.4624C7.67418 26.2268 7.48319 26.0359 7.24756 26.0359ZM19.9722 4.84606H17.9057C17.1762 4.84606 16.5827 4.25252 16.5827 3.52305V1.45657L19.9722 4.84606Z" fill="black"/>
<path d="M26.2406 20.8852L22.6259 14.7839C22.3625 14.339 21.7892 14.192 21.3441 14.4557L20.4649 14.9766C19.7824 15.3809 19.4939 16.1991 19.7283 16.9241C19.432 17.0315 19.1073 17.0298 18.8082 16.9141C18.114 16.6957 17.5862 16.2564 16.7146 16.4768C15.2346 16.8537 15.2795 16.8348 15.1456 16.8807C14.279 16.3873 13.7581 16.2405 12.8382 16.5963L12.0181 16.9134C11.6385 17.0601 11.2201 17.0253 10.8693 16.8174L10.6455 16.6855C10.7547 16.0312 10.4645 15.3407 9.85008 14.9767C9.85008 14.9767 9.85008 14.9767 9.85003 14.9766L8.97085 14.4558C8.52701 14.1929 7.952 14.3401 7.68907 14.7839L4.07427 20.8853C3.81083 21.33 3.95742 21.9035 4.40239 22.1671L5.28156 22.6879C5.5476 22.8456 5.83998 22.9205 6.12885 22.9205C6.45097 22.9205 6.76855 22.8271 7.04008 22.6513L7.22332 22.7595L6.83646 23.2983C6.37546 23.9405 6.52194 24.8335 7.16424 25.2945C7.46126 25.5077 7.83441 25.6051 8.2203 25.5445C8.28153 25.9024 8.47762 26.2374 8.79515 26.4654C9.09336 26.6795 9.46481 26.777 9.85138 26.7161C9.91278 27.0737 10.1088 27.4084 10.4261 27.6363C10.8526 27.9424 11.3829 27.9778 11.8247 27.7891C11.9214 28.0402 12.0895 28.267 12.3239 28.4354C12.9361 28.8747 13.7794 28.7601 14.255 28.1909L15.2831 28.7999C15.9629 29.2028 16.8401 28.9789 17.2432 28.2982C17.3463 28.1242 17.4102 27.9346 17.4336 27.7397L17.436 27.7411C18.1148 28.1432 18.994 27.9181 19.3961 27.2394C19.5126 27.0428 19.5764 26.8295 19.5919 26.6158C20.1903 26.7663 20.8424 26.515 21.1726 25.9576C21.281 25.7748 21.3438 25.5773 21.3644 25.3785C22.0057 25.6302 22.7553 25.387 23.1174 24.7757C23.3122 24.4469 23.3673 24.062 23.2726 23.6917C23.2183 23.4799 23.1187 23.2876 22.9818 23.1252L23.5484 22.7941C24.0278 22.9909 24.5748 22.9594 25.0333 22.6879L25.9123 22.167C26.3573 21.9036 26.5043 21.3302 26.2406 20.8852ZM5.71645 21.9539L4.83727 21.433C4.79819 21.4098 4.78522 21.3592 4.80833 21.3201L8.42313 15.2186C8.44641 15.1794 8.49722 15.1666 8.53608 15.1897L9.41519 15.7105C9.80585 15.942 9.92808 16.4431 9.70083 16.8266L6.8325 21.6682C6.60356 22.0547 6.10297 22.1828 5.71645 21.9539ZM7.66177 24.6014C7.4027 24.4154 7.34345 24.0551 7.52957 23.7959L8.09819 23.0038C8.27932 22.7515 8.64029 22.6824 8.90373 22.8716C9.16229 23.0572 9.2216 23.4185 9.03604 23.677L8.46737 24.4691C8.28176 24.7278 7.92022 24.7869 7.66177 24.6014ZM9.29274 25.7723C9.03417 25.5867 8.97487 25.2253 9.16048 24.9667L9.7291 24.1747C9.7291 24.1747 9.7291 24.1747 9.7291 24.1747C9.7291 24.1747 9.7291 24.1746 9.72916 24.1746L10.3567 23.3005C10.4466 23.1753 10.5799 23.0925 10.732 23.0676C10.7636 23.0624 10.7953 23.0598 10.8267 23.0598C10.9465 23.0598 11.063 23.0971 11.1622 23.1683C11.2874 23.2582 11.3702 23.3915 11.3951 23.5436C11.4201 23.6958 11.3844 23.8485 11.2944 23.9738L10.0982 25.64C9.91233 25.8992 9.55193 25.9585 9.29274 25.7723ZM10.9237 26.9432C10.6653 26.7576 10.6059 26.3965 10.7912 26.138C10.7912 26.1378 10.7913 26.1377 10.7914 26.1376L11.9876 24.4714C12.1731 24.2129 12.5347 24.1536 12.7931 24.3391C13.0517 24.5247 13.111 24.8861 12.9254 25.1447L12.3939 25.885C12.3939 25.885 12.3939 25.885 12.3939 25.8851L11.7292 26.8109C11.5436 27.0695 11.1823 27.1289 10.9237 26.9432ZM12.8215 27.7423C12.5631 27.5567 12.5037 27.1957 12.6889 26.9372L13.087 26.3826C13.2725 26.124 13.6341 26.0649 13.8925 26.2504C14.151 26.4359 14.2104 26.7974 14.0248 27.0559L13.627 27.6099C13.4414 27.8686 13.08 27.9279 12.8215 27.7423ZM22.3835 24.3409C22.2212 24.6148 21.8664 24.7057 21.5924 24.5434C21.1284 24.2685 18.1352 22.4953 17.8161 22.3062C17.6134 22.1861 17.3517 22.253 17.2317 22.4558C17.1116 22.6585 17.1785 22.9202 17.3812 23.0402L20.236 24.7316L20.2361 24.7316C20.5102 24.894 20.6016 25.2477 20.4387 25.5228C20.2763 25.7969 19.9213 25.8876 19.6474 25.7254C18.5915 25.0999 17.7341 24.592 16.791 24.0332C16.5882 23.9131 16.3266 23.98 16.2065 24.1827C16.0864 24.3854 16.1533 24.6471 16.3561 24.7672L18.4596 26.0134L18.46 26.0137C18.7343 26.1765 18.8248 26.5301 18.6622 26.8047C18.4998 27.0788 18.1449 27.1696 17.8708 27.0072L16.7419 26.3385C16.7418 26.3384 16.7417 26.3384 16.7415 26.3382C16.7414 26.3382 16.7413 26.3381 16.7412 26.3381L15.9174 25.8499C15.7146 25.7298 15.453 25.7967 15.3329 25.9995C15.2128 26.2022 15.2797 26.4639 15.4824 26.584L16.3064 27.0721C16.3065 27.0722 16.3067 27.0723 16.3068 27.0724C16.5809 27.2347 16.6723 27.5884 16.5093 27.8635C16.3469 28.1376 15.9921 28.2284 15.718 28.0661L14.7567 27.4967C15.1688 26.8608 15.0121 26.004 14.3901 25.5575C14.2074 25.4264 14.004 25.3448 13.796 25.3098C14.0167 24.7197 13.8264 24.0309 13.2907 23.6463C12.9735 23.4185 12.5937 23.3398 12.2353 23.396C12.1715 23.023 11.9675 22.6963 11.6598 22.4755C11.0811 22.0601 10.2945 22.1399 9.80873 22.6314C9.71001 22.458 9.57373 22.3025 9.40132 22.1787C8.92038 21.8336 8.29598 21.8303 7.81986 22.1211L7.62439 22.0057L10.3075 17.4768L10.4352 17.5521C10.9993 17.8863 11.6877 17.9559 12.3257 17.7092L13.1458 17.3922C13.615 17.2108 13.8738 17.199 14.338 17.418C14.0343 17.7592 13.854 18.2072 13.854 18.69V20.5815C13.854 21.0839 14.2624 21.4929 14.7644 21.4933H14.7657C15.2692 21.4933 15.7427 21.2972 16.099 20.9412C16.3066 20.7337 16.4599 20.4863 16.5517 20.2162C17.1026 20.5424 21.6535 23.2373 22.1811 23.5499C22.3138 23.6286 22.4079 23.7541 22.4462 23.9035C22.4844 24.0528 22.4621 24.2082 22.3835 24.3409ZM25.4777 21.433L24.5984 21.9539C24.2119 22.1827 23.7113 22.0546 23.4825 21.6683L22.1381 19.399C22.018 19.1963 21.7562 19.1294 21.5536 19.2493C21.3509 19.3694 21.284 19.6311 21.404 19.8338L22.7484 22.1032C22.7737 22.1459 22.8012 22.1865 22.8296 22.2261L22.4558 22.4444C22.3803 22.4892 22.3076 22.5384 22.2381 22.592L16.4425 19.1598C16.1585 18.9918 15.7985 19.1967 15.7985 19.5269C15.7941 19.5524 15.8426 19.9909 15.4958 20.3376C15.3007 20.5325 15.0414 20.6399 14.7656 20.6399C14.7654 20.6399 14.7652 20.6399 14.765 20.6399C14.7331 20.6399 14.7071 20.6136 14.7071 20.5813V18.6898C14.7071 18.1956 15.0471 17.7788 15.5068 17.6624L16.9238 17.3038C17.4379 17.1738 17.7285 17.4484 18.4983 17.7089C19.0327 17.9157 19.6138 17.9029 20.1296 17.6826L20.3871 18.1173C20.5072 18.3201 20.7689 18.387 20.9715 18.267C21.1742 18.1469 21.2412 17.8852 21.1212 17.6825L20.614 16.8265C20.3846 16.4392 20.5124 15.94 20.8996 15.7105L21.7788 15.1897C21.8172 15.1668 21.868 15.1785 21.8918 15.2186L25.5065 21.32C25.5299 21.3594 25.517 21.4097 25.4777 21.433Z" fill="black"/>
</svg>
