<svg width="25" height="24" viewBox="0 0 25 24" fill="none" xmlns="http://www.w3.org/2000/svg">
<g clip-path="url(#clip0)">
<path d="M10 8H2C1.173 8 0.5 7.327 0.5 6.5V1.5C0.5 0.673 1.173 0 2 0H10C10.827 0 11.5 0.673 11.5 1.5V6.5C11.5 7.327 10.827 8 10 8ZM2 1C1.725 1 1.5 1.224 1.5 1.5V6.5C1.5 6.776 1.725 7 2 7H10C10.275 7 10.5 6.776 10.5 6.5V1.5C10.5 1.224 10.275 1 10 1H2Z" fill="black"/>
<path d="M10 24H2C1.173 24 0.5 23.327 0.5 22.5V11.5C0.5 10.673 1.173 10 2 10H10C10.827 10 11.5 10.673 11.5 11.5V22.5C11.5 23.327 10.827 24 10 24ZM2 11C1.725 11 1.5 11.224 1.5 11.5V22.5C1.5 22.776 1.725 23 2 23H10C10.275 23 10.5 22.776 10.5 22.5V11.5C10.5 11.224 10.275 11 10 11H2Z" fill="black"/>
<path d="M23 24H15C14.173 24 13.5 23.327 13.5 22.5V17.5C13.5 16.673 14.173 16 15 16H23C23.827 16 24.5 16.673 24.5 17.5V22.5C24.5 23.327 23.827 24 23 24ZM15 17C14.725 17 14.5 17.224 14.5 17.5V22.5C14.5 22.776 14.725 23 15 23H23C23.275 23 23.5 22.776 23.5 22.5V17.5C23.5 17.224 23.275 17 23 17H15Z" fill="black"/>
<path d="M23 14H15C14.173 14 13.5 13.327 13.5 12.5V1.5C13.5 0.673 14.173 0 15 0H23C23.827 0 24.5 0.673 24.5 1.5V12.5C24.5 13.327 23.827 14 23 14ZM15 1C14.725 1 14.5 1.224 14.5 1.5V12.5C14.5 12.776 14.725 13 15 13H23C23.275 13 23.5 12.776 23.5 12.5V1.5C23.5 1.224 23.275 1 23 1H15Z" fill="black"/>
</g>
<defs>
<clipPath id="clip0">
<rect width="24" height="24" fill="white" transform="translate(0.5)"/>
</clipPath>
</defs>
</svg>
