<svg width="26" height="26" viewBox="0 0 26 26" fill="none" xmlns="http://www.w3.org/2000/svg">
<g clip-path="url(#clip0)">
<path d="M10.1552 8.55172H1.60345C0.719414 8.55172 0 7.83231 0 6.94828V1.60345C0 0.719414 0.719414 0 1.60345 0H10.1552C11.0392 0 11.7586 0.719414 11.7586 1.60345V6.94828C11.7586 7.83231 11.0392 8.55172 10.1552 8.55172ZM1.60345 1.06897C1.30948 1.06897 1.06897 1.30841 1.06897 1.60345V6.94828C1.06897 7.24331 1.30948 7.48276 1.60345 7.48276H10.1552C10.4491 7.48276 10.6897 7.24331 10.6897 6.94828V1.60345C10.6897 1.30841 10.4491 1.06897 10.1552 1.06897H1.60345Z" fill="white"/>
<path d="M10.1552 25.655H1.60345C0.719414 25.655 0 24.9356 0 24.0515V12.2929C0 11.4089 0.719414 10.6895 1.60345 10.6895H10.1552C11.0392 10.6895 11.7586 11.4089 11.7586 12.2929V24.0515C11.7586 24.9356 11.0392 25.655 10.1552 25.655ZM1.60345 11.7584C1.30948 11.7584 1.06897 11.9979 1.06897 12.2929V24.0515C1.06897 24.3466 1.30948 24.586 1.60345 24.586H10.1552C10.4491 24.586 10.6897 24.3466 10.6897 24.0515V12.2929C10.6897 11.9979 10.4491 11.7584 10.1552 11.7584H1.60345Z" fill="white"/>
<path d="M24.0517 25.6552H15.4999C14.6159 25.6552 13.8965 24.9358 13.8965 24.0518V18.707C13.8965 17.8229 14.6159 17.1035 15.4999 17.1035H24.0517C24.9357 17.1035 25.6551 17.8229 25.6551 18.707V24.0518C25.6551 24.9358 24.9357 25.6552 24.0517 25.6552ZM15.4999 18.1725C15.206 18.1725 14.9654 18.4119 14.9654 18.707V24.0518C14.9654 24.3468 15.206 24.5863 15.4999 24.5863H24.0517C24.3456 24.5863 24.5861 24.3468 24.5861 24.0518V18.707C24.5861 18.4119 24.3456 18.1725 24.0517 18.1725H15.4999Z" fill="white"/>
<path d="M24.0517 14.9655H15.4999C14.6159 14.9655 13.8965 14.2461 13.8965 13.3621V1.60345C13.8965 0.719414 14.6159 0 15.4999 0H24.0517C24.9357 0 25.6551 0.719414 25.6551 1.60345V13.3621C25.6551 14.2461 24.9357 14.9655 24.0517 14.9655ZM15.4999 1.06897C15.206 1.06897 14.9654 1.30841 14.9654 1.60345V13.3621C14.9654 13.6571 15.206 13.8966 15.4999 13.8966H24.0517C24.3456 13.8966 24.5861 13.6571 24.5861 13.3621V1.60345C24.5861 1.30841 24.3456 1.06897 24.0517 1.06897H15.4999Z" fill="white"/>
</g>
<defs>
<clipPath id="clip0">
<rect width="25.6552" height="25.6552" fill="white"/>
</clipPath>
</defs>
</svg>
