<svg id="SvgjsSvg1001" width="288" height="288" xmlns="http://www.w3.org/2000/svg" version="1.1" xmlns:xlink="http://www.w3.org/1999/xlink" xmlns:svgjs="http://svgjs.com/svgjs"><defs id="SvgjsDefs1002"></defs><g id="SvgjsG1008" transform="matrix(0.9167,0,0,0.9167,11.99514057807923,11.995200000000011)"><svg xmlns="http://www.w3.org/2000/svg" width="288" height="288" fill="none" viewBox="0 0 31 32"><path fill="#ffffff" d="M25.8013 7.88406C23.7879 5.93175 21.2889 4.62225 18.5686 4.05956C18.6669 3.757 18.7186 3.44037 18.7186 3.12125C18.7186 1.40012 17.2748 0 15.4999 0C13.7251 0 12.2812 1.40012 12.2812 3.12119C12.2812 3.44025 12.3329 3.75694 12.4312 4.0595C9.71093 4.62219 7.21189 5.93169 5.19857 7.884C2.447 10.5522 0.931641 14.0998 0.931641 17.8732C0.931641 19.6614 1.27176 21.4044 1.94259 23.0537C2.04056 23.2945 2.32144 23.4128 2.56965 23.3178C2.81805 23.2228 2.93994 22.9506 2.84203 22.7097C2.216 21.1704 1.8985 19.5432 1.8985 17.8732C1.8985 10.6006 8.00008 4.68388 15.5 4.68388C22.9999 4.68388 29.1015 10.6006 29.1015 17.8732C29.1014 25.1458 22.9998 31.0625 15.4999 31.0625C13.0987 31.0625 10.7388 30.4477 8.6751 29.2846C6.6719 28.1556 4.98677 26.5379 3.802 24.6066C3.66548 24.3841 3.36894 24.3108 3.13942 24.4434C2.90996 24.5758 2.83462 24.8634 2.97113 25.0859C4.23989 27.1539 6.04432 28.8861 8.18932 30.0951C10.4003 31.3413 12.9283 32 15.4999 32C19.3913 32 23.0496 30.5306 25.8013 27.8624C28.5528 25.1942 30.0682 21.6466 30.0682 17.8732C30.0682 14.0998 28.5528 10.5522 25.8013 7.88406ZM17.6057 3.8925C16.9142 3.796 16.211 3.74638 15.4999 3.74638C14.7888 3.74638 14.0856 3.796 13.3942 3.8925C13.2986 3.64694 13.248 3.38531 13.248 3.12125C13.248 1.91712 14.2582 0.9375 15.4999 0.9375C16.7417 0.9375 17.7518 1.91712 17.7518 3.12119C17.7518 3.38531 17.7012 3.64694 17.6057 3.8925Z" class="color19191D svgShape"></path><path fill="#ffffff" d="M18.5225 18.8357L21.4381 13.5702C21.6711 13.1493 21.5937 12.6394 21.2452 12.3016 20.8968 11.9638 20.371 11.8886 19.937 12.1147L14.5069 14.9419C13.6427 15.3918 12.9407 16.0726 12.4766 16.9106L9.56109 22.1761C9.32803 22.597 9.4055 23.1069 9.75394 23.4447 9.96831 23.6526 10.2498 23.761 10.5358 23.761 10.7146 23.761 10.8951 23.7186 11.0621 23.6317L16.4923 20.8045C17.3564 20.3545 18.0585 19.6737 18.5225 18.8357zM16.0349 19.9785L10.6048 22.8057C10.5432 22.8378 10.487 22.8297 10.4375 22.7818 10.3881 22.7338 10.3798 22.6792 10.4129 22.6195L13.3284 17.354C13.4378 17.1565 13.5641 16.9701 13.7048 16.7957L16.6107 19.6135C16.4308 19.75 16.2386 19.8724 16.0349 19.9785zM14.3886 16.1328C14.5684 15.9964 14.7606 15.874 14.9643 15.7678L20.3944 12.9406C20.4191 12.9278 20.4428 12.9214 20.4657 12.9214 20.4999 12.9214 20.532 12.9358 20.5617 12.9645 20.6111 13.0125 20.6194 13.067 20.5863 13.1267L17.6708 18.3922C17.5614 18.5898 17.4351 18.7761 17.2944 18.9505L14.3886 16.1328zM25.0301 17.8731C25.0301 17.0489 24.3386 16.3784 23.4887 16.3784 22.6387 16.3784 21.9473 17.049 21.9473 17.8731 21.9473 18.6972 22.6387 19.3678 23.4887 19.3678 24.3386 19.3678 25.0301 18.6972 25.0301 17.8731zM22.9141 17.8731C22.9141 17.5659 23.1718 17.3159 23.4887 17.3159 23.8055 17.3159 24.0633 17.5659 24.0633 17.8731 24.0633 18.1804 23.8055 18.4303 23.4887 18.4303 23.1718 18.4303 22.9141 18.1804 22.9141 17.8731zM5.96875 17.8731C5.96875 18.6972 6.6602 19.3678 7.51014 19.3678 8.36009 19.3678 9.05154 18.6973 9.05154 17.8731 9.05154 17.0489 8.36009 16.3784 7.51014 16.3784 6.6602 16.3784 5.96875 17.0489 5.96875 17.8731zM8.08474 17.8731C8.08474 18.1804 7.827 18.4303 7.51014 18.4303 7.19329 18.4303 6.93555 18.1804 6.93555 17.8731 6.93555 17.5659 7.19329 17.3159 7.51014 17.3159 7.827 17.3159 8.08474 17.5659 8.08474 17.8731z" class="color19191D svgShape"></path><path fill="#ffffff" d="M20.5181 8.55357C18.9812 7.77388 17.246 7.36182 15.5002 7.36182C9.52302 7.36182 4.66016 12.0773 4.66016 17.8734C4.66016 23.6695 9.52295 28.385 15.5002 28.385C21.4775 28.385 26.3403 23.6696 26.3403 17.8734C26.3403 14.7671 24.9341 11.8363 22.4824 9.8325C22.2782 9.66557 21.9732 9.69075 21.8012 9.88882C21.6292 10.0868 21.6552 10.3824 21.8593 10.5493C24.0926 12.3745 25.3735 15.0441 25.3735 17.8734C25.3735 23.1526 20.9444 27.4475 15.5002 27.4475C10.056 27.4475 5.62695 23.1526 5.62695 17.8734C5.62695 12.5943 10.056 8.29932 15.5002 8.29932C17.0906 8.29932 18.6708 8.6745 20.07 9.38425C20.3065 9.50432 20.5986 9.41557 20.7224 9.18619C20.8461 8.95682 20.7547 8.6735 20.5181 8.55357Z" class="color19191D svgShape"></path><path fill="#ffffff" d="M17.0418 10.126C17.0418 9.30191 16.3503 8.63135 15.5004 8.63135 14.6504 8.63135 13.959 9.30191 13.959 10.126 13.959 10.9502 14.6504 11.6207 15.5004 11.6207 16.3503 11.6207 17.0418 10.9502 17.0418 10.126zM14.9258 10.126C14.9258 9.81879 15.1835 9.56885 15.5004 9.56885 15.8172 9.56885 16.075 9.81879 16.075 10.126 16.075 10.4333 15.8172 10.6832 15.5004 10.6832 15.1835 10.6832 14.9258 10.4333 14.9258 10.126zM13.959 25.6207C13.959 26.4449 14.6504 27.1154 15.5004 27.1154 16.3503 27.1154 17.0418 26.4448 17.0418 25.6207 17.0418 24.7965 16.3503 24.126 15.5004 24.126 14.6504 24.126 13.959 24.7965 13.959 25.6207zM16.075 25.6207C16.075 25.9279 15.8172 26.1779 15.5004 26.1779 15.1835 26.1779 14.9258 25.9279 14.9258 25.6207 14.9258 25.3134 15.1835 25.0635 15.5004 25.0635 15.8172 25.0635 16.075 25.3134 16.075 25.6207z" class="color19191D svgShape"></path></svg></g></svg>