<svg width="28" height="29" viewBox="0 0 28 29" fill="none" xmlns="http://www.w3.org/2000/svg">
<g clip-path="url(#clip0)">
<path d="M26.3902 1.40332H6.05578C5.28224 1.40332 4.65311 2.03267 4.65311 2.80621V4.93577H1.40289C0.629348 4.93577 0 5.56512 0 6.33866V24.39C0 25.8902 1.21565 27.112 2.71396 27.1228H2.71947C2.72435 27.1231 2.7288 27.1235 2.73368 27.1235H17.1355C17.3603 27.1235 17.5427 26.9413 17.5427 26.7164C17.5427 26.4916 17.3603 26.3092 17.1355 26.3092H4.67834C5.16583 25.8154 5.46736 25.1373 5.46736 24.39V14.8694C5.46736 14.6447 5.285 14.4623 5.06023 14.4623C4.83525 14.4623 4.65311 14.6447 4.65311 14.8694V24.39C4.65311 25.4447 3.79772 26.3033 2.74407 26.309C2.74068 26.309 2.73728 26.3086 2.73368 26.3086C1.67536 26.3084 0.814251 25.4477 0.814251 24.39V6.33866C0.814251 6.01423 1.07825 5.75002 1.40289 5.75002H4.65311V13.3495C4.65311 13.5745 4.83525 13.7566 5.06023 13.7566C5.285 13.7566 5.46736 13.5745 5.46736 13.3495V2.80621C5.46736 2.48157 5.73135 2.21757 6.05578 2.21757H26.3902C26.7149 2.21757 26.9789 2.48157 26.9789 2.80621V24.39C26.9789 25.4483 26.1177 26.3092 25.0594 26.3092H18.6555C18.4305 26.3092 18.2483 26.4916 18.2483 26.7164C18.2483 26.9413 18.4305 27.1235 18.6555 27.1235H25.0594C26.5669 27.1235 27.7931 25.8972 27.7931 24.39V2.80621C27.7931 2.03267 27.1638 1.40332 26.3902 1.40332V1.40332Z" fill="white"/>
<path d="M8.92035 17.6481H14.5041C15.0353 17.6481 15.4674 17.216 15.4674 16.6848V11.101C15.4674 10.5698 15.0353 10.1377 14.5041 10.1377H8.92035C8.38918 10.1377 7.95703 10.5698 7.95703 11.101V16.6848C7.95703 17.216 8.38918 17.6481 8.92035 17.6481ZM8.77128 11.101C8.77128 11.0187 8.83808 10.9519 8.92035 10.9519H14.5041C14.5862 10.9519 14.6532 11.0187 14.6532 11.101V16.6848C14.6532 16.7668 14.5862 16.8339 14.5041 16.8339H8.92035C8.83808 16.8339 8.77128 16.7668 8.77128 16.6848V11.101Z" fill="white"/>
<path d="M16.9462 10.9519H24.5024C24.7272 10.9519 24.9095 10.7698 24.9095 10.5448C24.9095 10.3198 24.7272 10.1377 24.5024 10.1377H16.9462C16.7214 10.1377 16.5391 10.3198 16.5391 10.5448C16.5391 10.7698 16.7214 10.9519 16.9462 10.9519Z" fill="white"/>
<path d="M16.9462 14.2996H24.5024C24.7272 14.2996 24.9095 14.1172 24.9095 13.8925C24.9095 13.6675 24.7272 13.4854 24.5024 13.4854H16.9462C16.7214 13.4854 16.5391 13.6675 16.5391 13.8925C16.5391 14.1172 16.7214 14.2996 16.9462 14.2996Z" fill="white"/>
<path d="M16.9462 17.6492H24.5024C24.7272 17.6492 24.9095 17.4669 24.9095 17.2421C24.9095 17.0171 24.7272 16.835 24.5024 16.835H16.9462C16.7214 16.835 16.5391 17.0171 16.5391 17.2421C16.5391 17.4669 16.7214 17.6492 16.9462 17.6492Z" fill="white"/>
<path d="M8.36416 20.9969H24.5035C24.7283 20.9969 24.9106 20.8147 24.9106 20.5897C24.9106 20.365 24.7283 20.1826 24.5035 20.1826H8.36416C8.13939 20.1826 7.95703 20.365 7.95703 20.5897C7.95703 20.8147 8.13939 20.9969 8.36416 20.9969Z" fill="white"/>
<path d="M8.36416 24.3445H24.5035C24.7283 24.3445 24.9106 24.1624 24.9106 23.9374C24.9106 23.7124 24.7283 23.5303 24.5035 23.5303H8.36416C8.13939 23.5303 7.95703 23.7124 7.95703 23.9374C7.95703 24.1624 8.13939 24.3445 8.36416 24.3445Z" fill="white"/>
<path d="M7.9668 8.05427V3.75231C7.9668 3.66389 8.00878 3.59646 8.09275 3.55023C8.17672 3.50379 8.2785 3.48047 8.39767 3.48047C8.55692 3.48047 8.67821 3.50931 8.76239 3.56677C8.84615 3.62423 8.93902 3.74807 9.0408 3.93785L10.3201 6.4105V3.74574C10.3201 3.65731 10.3621 3.59116 10.446 3.54684C10.5298 3.50273 10.6316 3.48047 10.7509 3.48047C10.8703 3.48047 10.9719 3.50273 11.0559 3.54684C11.1398 3.59116 11.1818 3.65731 11.1818 3.74574V8.05427C11.1818 8.13845 11.1386 8.20461 11.0525 8.25317C10.9664 8.30194 10.8659 8.32611 10.7509 8.32611C10.5166 8.32611 10.3508 8.23557 10.2537 8.05427L8.82855 5.38951V8.05427C8.82855 8.13845 8.7855 8.20461 8.69941 8.25317C8.61332 8.30194 8.5126 8.32611 8.39767 8.32611C8.2785 8.32611 8.17672 8.30194 8.09296 8.25317C8.00878 8.20461 7.9668 8.13845 7.9668 8.05427Z" fill="white"/>
<path d="M11.9766 8.05427V3.75231C11.9766 3.66834 12.0141 3.60218 12.0894 3.55341C12.1644 3.50485 12.2526 3.48047 12.3544 3.48047H14.7143C14.8025 3.48047 14.8701 3.51821 14.9164 3.59328C14.9628 3.66834 14.9861 3.75464 14.9861 3.85176C14.9861 3.95778 14.9617 4.04854 14.9132 4.1236C14.8644 4.19888 14.798 4.2362 14.7143 4.2362H12.8383V5.5619H13.8459C13.9297 5.5619 13.9961 5.59625 14.0448 5.66474C14.0934 5.73323 14.1178 5.81381 14.1178 5.90668C14.1178 5.99065 14.0945 6.06678 14.048 6.13548C14.0016 6.20397 13.9344 6.23811 13.8459 6.23811H12.8383V7.5706H14.7143C14.798 7.5706 14.8644 7.60813 14.9132 7.68319C14.9617 7.75847 14.9861 7.84901 14.9861 7.95503C14.9861 8.05215 14.9628 8.13845 14.9164 8.21352C14.8701 8.28879 14.8025 8.32611 14.7143 8.32611H12.3544C12.2526 8.32611 12.1644 8.30194 12.0894 8.25338C12.0141 8.20461 11.9766 8.13845 11.9766 8.05427Z" fill="white"/>
<path d="M15.418 3.82525C15.418 3.73238 15.4776 3.6518 15.5969 3.58331C15.7161 3.51482 15.8399 3.48047 15.968 3.48047C16.1273 3.48047 16.2223 3.53793 16.253 3.65286L17.3005 7.24574L17.8639 4.93891C17.9036 4.77967 18.045 4.70015 18.288 4.70015C18.5268 4.70015 18.6659 4.77967 18.7057 4.93891L19.2691 7.24574L20.3164 3.65286C20.3474 3.53793 20.4424 3.48047 20.6016 3.48047C20.7297 3.48047 20.8533 3.51482 20.9727 3.58331C21.0921 3.6518 21.1517 3.73238 21.1517 3.82525C21.1517 3.85176 21.1472 3.87826 21.1385 3.90477L19.826 8.0742C19.7596 8.26886 19.5717 8.36598 19.2625 8.36598C19.13 8.36598 19.0106 8.34053 18.9046 8.28964C18.7986 8.23896 18.7343 8.16708 18.7123 8.0742L18.2882 6.28455L17.8573 8.0742C17.8351 8.16708 17.771 8.23896 17.665 8.28964C17.559 8.34053 17.4396 8.36598 17.3071 8.36598C17.1701 8.36598 17.0486 8.34053 16.9426 8.28964C16.8363 8.23896 16.7702 8.16708 16.7437 8.0742L15.4311 3.90477C15.4222 3.87826 15.418 3.85176 15.418 3.82525Z" fill="white"/>
<path d="M21.3711 7.5639C21.3711 7.46233 21.4097 7.35949 21.4871 7.25558C21.5643 7.15189 21.6516 7.09994 21.749 7.09994C21.8062 7.09994 21.8715 7.12751 21.9445 7.18264C22.0174 7.23756 22.088 7.29863 22.1565 7.365C22.225 7.43158 22.3234 7.49244 22.4517 7.54757C22.5797 7.6027 22.7212 7.63005 22.8758 7.63005C23.088 7.63005 23.2647 7.5815 23.4061 7.48417C23.5475 7.38705 23.6181 7.2435 23.6181 7.05351C23.6181 6.92077 23.5795 6.80266 23.5021 6.69876C23.425 6.59507 23.3232 6.50876 23.1972 6.44027C23.0715 6.37178 22.9332 6.30541 22.7831 6.24138C22.6328 6.17734 22.4814 6.10546 22.3289 6.02594C22.1764 5.94642 22.0373 5.85694 21.9114 5.75749C21.7854 5.65804 21.6836 5.52551 21.6065 5.35969C21.5291 5.19409 21.4905 5.00516 21.4905 4.79311C21.4905 4.55541 21.538 4.34549 21.633 4.16398C21.728 3.98225 21.855 3.84103 22.014 3.7401C22.173 3.63917 22.3431 3.56516 22.5244 3.51809C22.7055 3.47101 22.8978 3.44727 23.1012 3.44727C23.2159 3.44727 23.3374 3.45532 23.4657 3.47123C23.5937 3.48713 23.7297 3.51321 23.8734 3.54947C24.017 3.58573 24.134 3.64256 24.2246 3.71953C24.3151 3.79671 24.3605 3.88747 24.3605 3.99201C24.3605 4.0904 24.3295 4.19218 24.2678 4.29735C24.2059 4.40253 24.1219 4.4549 24.0159 4.4549C23.9761 4.4549 23.8677 4.41292 23.6911 4.32895C23.5142 4.24498 23.3177 4.20299 23.1012 4.20299C22.8624 4.20299 22.6779 4.24837 22.5477 4.33891C22.4173 4.42967 22.352 4.55435 22.352 4.71338C22.352 4.84167 22.405 4.95321 22.5113 5.0482C22.6173 5.1432 22.7487 5.22059 22.9057 5.28018C23.0624 5.33976 23.2326 5.41504 23.4161 5.50558C23.5993 5.59612 23.7695 5.69451 23.9264 5.80054C24.0831 5.90656 24.2148 6.06008 24.3208 6.2611C24.4269 6.46233 24.4799 6.6977 24.4799 6.9672C24.4799 7.42034 24.3351 7.77022 24.0458 8.0164C23.7562 8.26258 23.3751 8.38578 22.9023 8.38578C22.4824 8.38578 22.1224 8.29948 21.8219 8.12709C21.5212 7.95512 21.3711 7.76725 21.3711 7.5639Z" fill="white"/>
</g>
<defs>
<clipPath id="clip0">
<rect width="27.7931" height="27.7931" fill="white" transform="translate(0 0.37207)"/>
</clipPath>
</defs>
</svg>
