<svg width="27" height="26" viewBox="0 0 27 26" fill="none" xmlns="http://www.w3.org/2000/svg">
<g clip-path="url(#clip0)">
<path d="M25.1876 0.964844H6.16508C5.44145 0.964844 4.85291 1.55359 4.85291 2.27722V4.26939H1.81238C1.08875 4.26939 0.5 4.85814 0.5 5.58177V22.4685C0.5 23.8719 1.63722 25.0149 3.03886 25.025H3.04402C3.04858 25.0252 3.05275 25.0256 3.05731 25.0256H16.53C16.7403 25.0256 16.9109 24.8552 16.9109 24.6448C16.9109 24.4345 16.7403 24.2639 16.53 24.2639H4.87651C5.33255 23.8019 5.61462 23.1676 5.61462 22.4685V13.5622C5.61462 13.3519 5.44403 13.1813 5.23376 13.1813C5.0233 13.1813 4.85291 13.3519 4.85291 13.5622V22.4685C4.85291 23.4552 4.0527 24.2584 3.06703 24.2637C3.06386 24.2637 3.06068 24.2633 3.05731 24.2633C2.06728 24.2631 1.26172 23.458 1.26172 22.4685V5.58177C1.26172 5.27827 1.50868 5.03111 1.81238 5.03111H4.85291V12.1403C4.85291 12.3508 5.0233 12.5211 5.23376 12.5211C5.44403 12.5211 5.61462 12.3508 5.61462 12.1403V2.27722C5.61462 1.97353 5.86159 1.72656 6.16508 1.72656H25.1876C25.4913 1.72656 25.7383 1.97353 25.7383 2.27722V22.4685C25.7383 23.4586 24.9327 24.2639 23.9427 24.2639H17.9519C17.7414 24.2639 17.571 24.4345 17.571 24.6448C17.571 24.8552 17.7414 25.0256 17.9519 25.0256H23.9427C25.3529 25.0256 26.5 23.8785 26.5 22.4685V2.27722C26.5 1.55359 25.9113 0.964844 25.1876 0.964844V0.964844Z" fill="black"/>
<path d="M8.84453 16.1616H14.0681C14.565 16.1616 14.9692 15.7573 14.9692 15.2604V10.0369C14.9692 9.54001 14.565 9.13574 14.0681 9.13574H8.84453C8.34763 9.13574 7.94336 9.54001 7.94336 10.0369V15.2604C7.94336 15.7573 8.34763 16.1616 8.84453 16.1616ZM8.70508 10.0369C8.70508 9.95995 8.76756 9.89746 8.84453 9.89746H14.0681C14.1448 9.89746 14.2075 9.95995 14.2075 10.0369V15.2604C14.2075 15.3372 14.1448 15.3999 14.0681 15.3999H8.84453C8.76756 15.3999 8.70508 15.3372 8.70508 15.2604V10.0369Z" fill="black"/>
<path d="M16.3535 9.89746H23.4222C23.6325 9.89746 23.8031 9.72707 23.8031 9.5166C23.8031 9.30614 23.6325 9.13574 23.4222 9.13574H16.3535C16.1432 9.13574 15.9727 9.30614 15.9727 9.5166C15.9727 9.72707 16.1432 9.89746 16.3535 9.89746Z" fill="black"/>
<path d="M16.3535 13.0298H23.4222C23.6325 13.0298 23.8031 12.8592 23.8031 12.6489C23.8031 12.4385 23.6325 12.2681 23.4222 12.2681H16.3535C16.1432 12.2681 15.9727 12.4385 15.9727 12.6489C15.9727 12.8592 16.1432 13.0298 16.3535 13.0298Z" fill="black"/>
<path d="M16.3535 16.1616H23.4222C23.6325 16.1616 23.8031 15.991 23.8031 15.7808C23.8031 15.5703 23.6325 15.3999 23.4222 15.3999H16.3535C16.1432 15.3999 15.9727 15.5703 15.9727 15.7808C15.9727 15.991 16.1432 16.1616 16.3535 16.1616Z" fill="black"/>
<path d="M8.32422 19.2935H23.4223C23.6326 19.2935 23.8032 19.1231 23.8032 18.9126C23.8032 18.7023 23.6326 18.5317 23.4223 18.5317H8.32422C8.11395 18.5317 7.94336 18.7023 7.94336 18.9126C7.94336 19.1231 8.11395 19.2935 8.32422 19.2935Z" fill="black"/>
<path d="M8.32422 22.4258H23.4223C23.6326 22.4258 23.8032 22.2554 23.8032 22.0449C23.8032 21.8345 23.6326 21.6641 23.4223 21.6641H8.32422C8.11395 21.6641 7.94336 21.8345 7.94336 22.0449C7.94336 22.2554 8.11395 22.4258 8.32422 22.4258Z" fill="black"/>
<path d="M7.95312 7.18692V3.16251C7.95312 3.07979 7.9924 3.01671 8.07095 2.97346C8.14951 2.93002 8.24472 2.9082 8.3562 2.9082C8.50517 2.9082 8.61864 2.93518 8.69739 2.98894C8.77574 3.04269 8.86263 3.15854 8.95784 3.33607L10.1546 5.6492V3.15636C10.1546 3.07364 10.1938 3.01175 10.2724 2.97029C10.3508 2.92903 10.446 2.9082 10.5576 2.9082C10.6693 2.9082 10.7643 2.92903 10.8429 2.97029C10.9214 3.01175 10.9607 3.07364 10.9607 3.15636V7.18692C10.9607 7.26567 10.9203 7.32756 10.8397 7.37299C10.7592 7.41861 10.6652 7.44122 10.5576 7.44122C10.3385 7.44122 10.1833 7.35652 10.0925 7.18692L8.75928 4.69408V7.18692C8.75928 7.26567 8.71901 7.32756 8.63847 7.37299C8.55794 7.41861 8.46371 7.44122 8.3562 7.44122C8.24472 7.44122 8.14951 7.41861 8.07115 7.37299C7.9924 7.32756 7.95312 7.26567 7.95312 7.18692Z" fill="black"/>
<path d="M11.7051 7.18692V3.16251C11.7051 3.08395 11.7402 3.02206 11.8106 2.97644C11.8808 2.93102 11.9633 2.9082 12.0586 2.9082H14.2662C14.3487 2.9082 14.412 2.94351 14.4552 3.01373C14.4986 3.08395 14.5205 3.16469 14.5205 3.25554C14.5205 3.35472 14.4977 3.43962 14.4522 3.50984C14.4066 3.58026 14.3445 3.61517 14.2662 3.61517H12.5112V4.85535H13.4539C13.5322 4.85535 13.5943 4.88748 13.6399 4.95155C13.6854 5.01562 13.7082 5.091 13.7082 5.17789C13.7082 5.25644 13.6863 5.32765 13.6429 5.39192C13.5995 5.45599 13.5366 5.48793 13.4539 5.48793H12.5112V6.73445H14.2662C14.3445 6.73445 14.4066 6.76956 14.4522 6.83978C14.4977 6.9102 14.5205 6.9949 14.5205 7.09409C14.5205 7.18494 14.4986 7.26567 14.4552 7.33589C14.412 7.40631 14.3487 7.44122 14.2662 7.44122H12.0586C11.9633 7.44122 11.8808 7.41861 11.8106 7.37318C11.7402 7.32756 11.7051 7.26567 11.7051 7.18692Z" fill="black"/>
<path d="M14.9238 3.23074C14.9238 3.14386 14.9796 3.06848 15.0912 3.00441C15.2027 2.94034 15.3186 2.9082 15.4384 2.9082C15.5874 2.9082 15.6762 2.96196 15.705 3.06947L16.6849 6.43056L17.212 4.27255C17.2491 4.12358 17.3814 4.04919 17.6087 4.04919C17.832 4.04919 17.9622 4.12358 17.9995 4.27255L18.5265 6.43056L19.5062 3.06947C19.5352 2.96196 19.6241 2.9082 19.773 2.9082C19.8929 2.9082 20.0085 2.94034 20.1202 3.00441C20.2319 3.06848 20.2876 3.14386 20.2876 3.23074C20.2876 3.25554 20.2834 3.28033 20.2753 3.30513L19.0474 7.20557C18.9853 7.38766 18.8096 7.47852 18.5204 7.47852C18.3964 7.47852 18.2847 7.45471 18.1855 7.4071C18.0863 7.3597 18.0262 7.29245 18.0056 7.20557L17.6089 5.53137L17.2058 7.20557C17.185 7.29245 17.1251 7.3597 17.0259 7.4071C16.9267 7.45471 16.815 7.47852 16.6911 7.47852C16.5629 7.47852 16.4492 7.45471 16.3501 7.4071C16.2507 7.3597 16.1888 7.29245 16.164 7.20557L14.9361 3.30513C14.9278 3.28033 14.9238 3.25554 14.9238 3.23074Z" fill="black"/>
<path d="M20.4922 6.728C20.4922 6.63298 20.5283 6.53677 20.6007 6.43957C20.6729 6.34257 20.7546 6.29397 20.8457 6.29397C20.8992 6.29397 20.9603 6.31976 21.0286 6.37134C21.0968 6.42271 21.1629 6.47984 21.2269 6.54193C21.291 6.60422 21.383 6.66115 21.5031 6.71272C21.6229 6.7643 21.7552 6.78988 21.8998 6.78988C22.0983 6.78988 22.2636 6.74446 22.3959 6.65341C22.5282 6.56256 22.5943 6.42827 22.5943 6.25053C22.5943 6.12636 22.5582 6.01587 22.4857 5.91867C22.4135 5.82167 22.3183 5.74094 22.2005 5.67686C22.0829 5.61279 21.9535 5.5507 21.8131 5.4908C21.6725 5.43089 21.5308 5.36365 21.3882 5.28926C21.2456 5.21487 21.1154 5.13116 20.9976 5.03813C20.8798 4.9451 20.7846 4.82112 20.7124 4.666C20.64 4.51108 20.6039 4.33433 20.6039 4.13597C20.6039 3.9136 20.6483 3.71722 20.7372 3.54742C20.826 3.37743 20.9449 3.24532 21.0936 3.15089C21.2424 3.05647 21.4015 2.98724 21.5711 2.94321C21.7405 2.89917 21.9204 2.87695 22.1106 2.87695C22.218 2.87695 22.3316 2.88449 22.4516 2.89937C22.5714 2.91425 22.6986 2.93864 22.8331 2.97256C22.9674 3.00648 23.0769 3.05965 23.1616 3.13165C23.2463 3.20386 23.2887 3.28876 23.2887 3.38655C23.2887 3.47859 23.2598 3.57381 23.202 3.6722C23.1441 3.77058 23.0656 3.81958 22.9664 3.81958C22.9291 3.81958 22.8277 3.7803 22.6625 3.70175C22.4971 3.6232 22.3132 3.58392 22.1106 3.58392C21.8873 3.58392 21.7147 3.62637 21.5929 3.71107C21.4709 3.79597 21.4098 3.91261 21.4098 4.06139C21.4098 4.1814 21.4594 4.28574 21.5588 4.3746C21.658 4.46347 21.781 4.53587 21.9277 4.59161C22.0743 4.64735 22.2336 4.71777 22.4052 4.80247C22.5766 4.88718 22.7359 4.97922 22.8827 5.0784C23.0293 5.17758 23.1525 5.3212 23.2516 5.50925C23.3508 5.69749 23.4004 5.91768 23.4004 6.1698C23.4004 6.5937 23.2649 6.921 22.9944 7.1513C22.7234 7.38161 22.3669 7.49685 21.9246 7.49685C21.5318 7.49685 21.195 7.41612 20.9139 7.25485C20.6326 7.09398 20.4922 6.91823 20.4922 6.728Z" fill="black"/>
</g>
<defs>
<clipPath id="clip0">
<rect width="26" height="26" fill="white" transform="translate(0.5)"/>
</clipPath>
</defs>
</svg>
