<svg width="29" height="28" viewBox="0 0 29 28" fill="none" xmlns="http://www.w3.org/2000/svg">
<g clip-path="url(#clip0)">
<path d="M21.9548 4.64184C21.967 4.64272 21.9791 4.64361 21.9916 4.64361C22.0126 4.64361 22.0336 4.64184 22.0542 4.63896C22.6056 4.65026 23.0468 5.09991 23.0475 5.65124C23.0475 5.90176 23.2506 6.10488 23.5011 6.10488C23.7516 6.10488 23.9548 5.90176 23.9548 5.65124C23.9536 4.74949 23.3259 3.96935 22.4452 3.77531V3.33939C22.4452 3.08886 22.2421 2.88574 21.9916 2.88574C21.741 2.88574 21.5379 3.08886 21.5379 3.33939V3.79591C20.6067 4.04488 20.0042 4.94574 20.1298 5.90154C20.2554 6.85734 21.0701 7.57191 22.0341 7.57191C22.5938 7.57191 23.0475 8.02578 23.0475 8.58552C23.0475 9.14505 22.5938 9.59891 22.0341 9.59891C21.4743 9.59891 21.0207 9.14505 21.0207 8.58552C21.0207 8.335 20.8176 8.13188 20.567 8.13188C20.3165 8.13188 20.1134 8.335 20.1134 8.58552C20.1145 9.45471 20.6984 10.2151 21.5379 10.4409V10.9379C21.5379 11.1884 21.741 11.3916 21.9916 11.3916C22.2421 11.3916 22.4452 11.1884 22.4452 10.9379V10.4617C23.4032 10.2519 24.0493 9.35393 23.9437 8.37886C23.8382 7.40379 23.0149 6.66485 22.0341 6.66507C21.4898 6.66529 21.0426 6.23557 21.0211 5.69177C20.9999 5.14798 21.4121 4.68437 21.9548 4.64206V4.64184Z" fill="black"/>
<path d="M22.0598 0.667969C19.2691 0.667969 16.8874 2.48897 15.9952 4.9273H4.73585C4.48644 4.9273 4.28398 5.15213 4.28221 5.40132L4.175 21.3152H0.965605C0.715082 21.3152 0.5 21.4966 0.5 21.7475V23.767C0.505759 25.6682 2.00314 27.23 3.90233 27.316V27.3259H17.9086V27.3126C18.022 27.3169 18.0687 27.3259 18.1405 27.3259H18.1502C20.1159 27.3228 21.7078 25.7284 21.7078 23.7628V13.5523C21.8212 13.5585 21.9413 13.5618 22.0587 13.5618C25.6101 13.5618 28.5001 10.6663 28.5001 7.11467C28.5001 3.56327 25.6114 0.667969 22.0598 0.667969ZM4.07488 26.4187H4.072C2.60453 26.4167 1.41393 25.2301 1.40729 23.7624V22.2225H14.5629V23.7559C14.5636 24.7026 14.9417 25.6102 15.6133 26.2776C15.661 26.3252 15.7201 26.3619 15.7699 26.4187H4.07488ZM20.8005 23.7624C20.8008 25.2274 19.6146 26.4158 18.1498 26.4187H18.1412C16.6704 26.416 15.4775 25.227 15.4702 23.7564V21.7475C15.474 21.6315 15.4297 21.5192 15.3475 21.4372C15.2653 21.3553 15.153 21.3112 15.0372 21.3152H5.08229L5.18639 5.83459H15.7434C15.6629 6.24991 15.6213 6.67165 15.6191 7.09451C15.6182 7.98873 15.8047 8.87298 16.1666 9.69055H11.8818C11.6311 9.69055 11.4282 9.89367 11.4282 10.1442C11.4282 10.3947 11.6311 10.5978 11.8818 10.5978H16.6588C17.5947 12.0695 19.0907 13.0955 20.8005 13.4389V23.7624ZM22.0598 12.6547C19.0039 12.6547 16.5264 10.1774 16.5266 7.12131C16.5266 4.0652 19.0039 1.58788 22.06 1.58788C25.1159 1.58788 27.5932 4.06542 27.5932 7.12131C27.5899 10.1759 25.1146 12.6514 22.0598 12.6547Z" fill="black"/>
<path d="M8.96955 12.7095C8.1688 12.7095 7.51758 13.3401 7.51758 14.1154C7.51758 14.8906 8.1688 15.5213 8.96955 15.5213C9.77029 15.5213 10.4217 14.8906 10.4217 14.1154C10.4217 13.3401 9.77029 12.7095 8.96955 12.7095ZM8.96955 14.614C8.66896 14.614 8.42487 14.3903 8.42487 14.1154C8.42487 13.8403 8.66919 13.6168 8.96955 13.6168C9.26991 13.6168 9.51445 13.8405 9.51445 14.1154C9.51445 14.3903 9.26991 14.614 8.96955 14.614Z" fill="black"/>
<path d="M11.4277 14.1138C11.4277 14.3643 11.6306 14.5674 11.8814 14.5674H17.9294C18.1799 14.5674 18.383 14.3643 18.383 14.1138C18.383 13.8633 18.1799 13.6602 17.9294 13.6602H11.8814C11.6306 13.6602 11.4277 13.8633 11.4277 14.1138Z" fill="black"/>
<path d="M8.96955 8.76611C8.1688 8.76611 7.51758 9.39696 7.51758 10.1722C7.51758 10.9475 8.1688 11.5781 8.96955 11.5781C9.77029 11.5781 10.4217 10.9475 10.4217 10.1722C10.4217 9.39696 9.77029 8.76611 8.96955 8.76611ZM8.96955 10.6708C8.66896 10.6708 8.42487 10.4471 8.42487 10.1722C8.42487 9.89734 8.66919 9.6734 8.96955 9.6734C9.26991 9.6734 9.51445 9.89712 9.51445 10.1722C9.51445 10.4471 9.26991 10.6711 8.96955 10.6711V10.6708Z" fill="black"/>
<path d="M8.96955 16.6528C8.1688 16.6528 7.51758 17.2835 7.51758 18.0587C7.51758 18.834 8.1688 19.4646 8.96955 19.4646C9.77029 19.4646 10.4217 18.834 10.4217 18.0587C10.4217 17.2835 9.77029 16.6528 8.96955 16.6528ZM8.96955 18.5573C8.66896 18.5573 8.42487 18.3338 8.42487 18.0587C8.42487 17.7838 8.66919 17.5601 8.96955 17.5601C9.26991 17.5601 9.51445 17.7838 9.51445 18.0587C9.51445 18.3336 9.26991 18.5573 8.96955 18.5573Z" fill="black"/>
<path d="M17.9294 17.6294H11.8814C11.6306 17.6294 11.4277 17.8325 11.4277 18.083C11.4277 18.3336 11.6306 18.5367 11.8814 18.5367H17.9294C18.1799 18.5367 18.383 18.3336 18.383 18.083C18.383 17.8325 18.1799 17.6294 17.9294 17.6294Z" fill="black"/>
</g>
<defs>
<clipPath id="clip0">
<rect width="28" height="28" fill="white" transform="translate(0.5)"/>
</clipPath>
</defs>
</svg>
