<svg width="30" height="31" viewBox="0 0 30 31" fill="none" xmlns="http://www.w3.org/2000/svg">
<g clip-path="url(#clip0)">
<path d="M22.9353 5.92799C22.9483 5.92893 22.9613 5.92988 22.9746 5.92988C22.9971 5.92988 23.0196 5.92799 23.0416 5.92491C23.631 5.93698 24.1026 6.41765 24.1033 7.007C24.1033 7.2748 24.3205 7.49193 24.5883 7.49193C24.8561 7.49193 25.0732 7.2748 25.0732 7.007C25.072 6.04306 24.401 5.20912 23.4595 5.0017V4.53571C23.4595 4.26791 23.2424 4.05078 22.9746 4.05078C22.7068 4.05078 22.4897 4.26791 22.4897 4.53571V5.02372C21.4942 5.28986 20.8502 6.25285 20.9845 7.27457C21.1187 8.29628 21.9896 9.06014 23.0201 9.06014C23.6184 9.06014 24.1033 9.5453 24.1033 10.1437C24.1033 10.7418 23.6184 11.2269 23.0201 11.2269C22.4217 11.2269 21.9368 10.7418 21.9368 10.1437C21.9368 9.87585 21.7197 9.65872 21.4519 9.65872C21.1841 9.65872 20.9669 9.87585 20.9669 10.1437C20.9681 11.0728 21.5923 11.8857 22.4897 12.1269V12.6583C22.4897 12.9261 22.7068 13.1432 22.9746 13.1432C23.2424 13.1432 23.4595 12.9261 23.4595 12.6583V12.1492C24.4836 11.925 25.1743 10.965 25.0614 9.92273C24.9487 8.88042 24.0685 8.09052 23.0201 8.09075C22.4383 8.09099 21.9602 7.63163 21.9373 7.05033C21.9145 6.46903 22.3552 5.97345 22.9353 5.92822V5.92799Z" fill="white"/>
<path d="M23.0467 1.67969C20.0635 1.67969 17.5176 3.62627 16.5638 6.23276H4.52798C4.26136 6.23276 4.04494 6.4731 4.04305 6.73948L3.92845 23.7508H0.497716C0.229915 23.7508 0 23.9447 0 24.213V26.3718C0.0061563 28.4041 1.6068 30.0736 3.63697 30.1655V30.1761H18.6092V30.1619C18.7304 30.1664 18.7804 30.1761 18.8571 30.1761H18.8675C20.9687 30.1728 22.6704 28.4685 22.6704 26.3673V15.4526C22.7917 15.4592 22.92 15.4628 23.0455 15.4628C26.8418 15.4628 29.9311 12.3675 29.9311 8.57098C29.9311 4.77466 26.8433 1.67969 23.0467 1.67969ZM3.82142 29.2063H3.81834C2.24966 29.2041 0.976962 27.9357 0.969859 26.3668V24.7207H15.0328V26.3599C15.0335 27.3719 15.4377 28.342 16.1556 29.0554C16.2065 29.1064 16.2698 29.1457 16.323 29.2063H3.82142ZM21.7006 26.3668C21.7008 27.9329 20.4329 29.2032 18.867 29.2063H18.8578C17.2856 29.2034 16.0105 27.9324 16.0027 26.3604V24.213C16.0067 24.089 15.9593 23.9689 15.8715 23.8813C15.7836 23.7937 15.6636 23.7466 15.5398 23.7508H4.89831L5.00959 7.20262H16.2946C16.2087 7.64659 16.1642 8.09742 16.1618 8.54944C16.1608 9.50532 16.3602 10.4506 16.7471 11.3245H12.1668C11.8988 11.3245 11.6819 11.5416 11.6819 11.8094C11.6819 12.0772 11.8988 12.2944 12.1668 12.2944H17.2732C18.2736 13.8676 19.8729 14.9643 21.7006 15.3313V26.3668ZM23.0467 14.4931C19.78 14.4931 17.1316 11.845 17.1319 8.57809C17.1319 5.31121 19.78 2.66304 23.0469 2.66304C26.3136 2.66304 28.9617 5.31145 28.9617 8.57809C28.9582 11.8433 26.3121 14.4896 23.0467 14.4931Z" fill="white"/>
<path d="M9.05406 14.5518C8.19809 14.5518 7.50195 15.2259 7.50195 16.0546C7.50195 16.8833 8.19809 17.5575 9.05406 17.5575C9.91002 17.5575 10.6064 16.8833 10.6064 16.0546C10.6064 15.2259 9.91002 14.5518 9.05406 14.5518ZM9.05406 16.5876C8.73275 16.5876 8.47181 16.3485 8.47181 16.0546C8.47181 15.7605 8.73298 15.5216 9.05406 15.5216C9.37513 15.5216 9.63654 15.7608 9.63654 16.0546C9.63654 16.3485 9.37513 16.5876 9.05406 16.5876Z" fill="white"/>
<path d="M11.6816 16.0533C11.6816 16.3211 11.8985 16.5382 12.1666 16.5382H18.6317C18.8995 16.5382 19.1166 16.3211 19.1166 16.0533C19.1166 15.7855 18.8995 15.5684 18.6317 15.5684H12.1666C11.8985 15.5684 11.6816 15.7855 11.6816 16.0533Z" fill="white"/>
<path d="M9.05406 10.3369C8.19809 10.3369 7.50195 11.0113 7.50195 11.84C7.50195 12.6687 8.19809 13.3429 9.05406 13.3429C9.91002 13.3429 10.6064 12.6687 10.6064 11.84C10.6064 11.0113 9.91002 10.3369 9.05406 10.3369ZM9.05406 12.373C8.73275 12.373 8.47181 12.1339 8.47181 11.84C8.47181 11.5462 8.73298 11.3068 9.05406 11.3068C9.37513 11.3068 9.63654 11.5459 9.63654 11.84C9.63654 12.1339 9.37513 12.3732 9.05406 12.3732V12.373Z" fill="white"/>
<path d="M9.05406 18.7666C8.19809 18.7666 7.50195 19.4407 7.50195 20.2695C7.50195 21.0982 8.19809 21.7723 9.05406 21.7723C9.91002 21.7723 10.6064 21.0982 10.6064 20.2695C10.6064 19.4407 9.91002 18.7666 9.05406 18.7666ZM9.05406 20.8025C8.73275 20.8025 8.47181 20.5635 8.47181 20.2695C8.47181 19.9756 8.73298 19.7365 9.05406 19.7365C9.37513 19.7365 9.63654 19.9756 9.63654 20.2695C9.63654 20.5633 9.37513 20.8025 9.05406 20.8025Z" fill="white"/>
<path d="M18.6317 19.8105H12.1666C11.8985 19.8105 11.6816 20.0277 11.6816 20.2955C11.6816 20.5633 11.8985 20.7804 12.1666 20.7804H18.6317C18.8995 20.7804 19.1166 20.5633 19.1166 20.2955C19.1166 20.0277 18.8995 19.8105 18.6317 19.8105Z" fill="white"/>
</g>
<defs>
<clipPath id="clip0">
<rect width="29.931" height="29.931" fill="white" transform="translate(0 0.96582)"/>
</clipPath>
</defs>
</svg>
