<svg width="25" height="23" viewBox="0 0 25 23" fill="none" xmlns="http://www.w3.org/2000/svg">
<path d="M21.8296 3.55871H11.6588L9.83895 1.63547C9.06282 0.790597 8.17588 0.379883 7.12752 0.379883H2.75664C1.23661 0.379883 0 1.61649 0 3.13652V20.2227C0 21.7427 1.23661 22.9793 2.75664 22.9793H21.8296C23.3496 22.9793 24.5862 21.7427 24.5862 20.2227V6.31534C24.5862 4.79532 23.3496 3.55871 21.8296 3.55871ZM23.8412 20.2227C23.8412 21.3319 22.9388 22.2343 21.8296 22.2343H2.75664C1.64742 22.2343 0.745037 21.3319 0.745037 20.2227V8.69946C0.745037 7.59025 1.64742 6.68786 2.75664 6.68786H21.8296C22.9388 6.68786 23.8412 7.59025 23.8412 8.69946V20.2227ZM21.8296 5.94282H2.75664C1.96372 5.94282 1.24843 6.27978 0.745037 6.8175V3.13652C0.745037 2.02731 1.64742 1.12492 2.75664 1.12492H7.12752C7.96792 1.12492 8.65574 1.44792 9.29205 2.1414C9.29334 2.14279 9.29463 2.14423 9.29597 2.14557L11.2278 4.18722C11.2982 4.26157 11.396 4.30374 11.4984 4.30374H21.8296C22.9388 4.30374 23.8412 5.20613 23.8412 6.31534V6.8175C23.3378 6.27978 22.6225 5.94282 21.8296 5.94282Z" fill="white"/>
<path d="M21.4326 8.32715H16.267C16.0613 8.32715 15.8945 8.49389 15.8945 8.69967C15.8945 8.90544 16.0613 9.07218 16.267 9.07218H21.4326C21.6384 9.07218 21.8052 8.90544 21.8052 8.69967C21.8052 8.49389 21.6384 8.32715 21.4326 8.32715Z" fill="white"/>
<path d="M21.4326 10.3135H16.267C16.0613 10.3135 15.8945 10.4802 15.8945 10.686C15.8945 10.8918 16.0613 11.0585 16.267 11.0585H21.4326C21.6384 11.0585 21.8052 10.8918 21.8052 10.686C21.8052 10.4802 21.6384 10.3135 21.4326 10.3135Z" fill="white"/>
</svg>
