<svg width="23" height="23" viewBox="0 0 23 23" fill="none" xmlns="http://www.w3.org/2000/svg">
<path d="M20.4212 3.90294H10.9066L9.20418 2.10378C8.47813 1.31342 7.64841 0.929199 6.66768 0.929199H2.57879C1.15683 0.929199 0 2.08603 0 3.50799V19.4918C0 20.9138 1.15683 22.0706 2.57879 22.0706H20.4212C21.8432 22.0706 23 20.9138 23 19.4918V6.48172C23 5.05977 21.8432 3.90294 20.4212 3.90294ZM22.303 19.4918C22.303 20.5295 21.4589 21.3736 20.4212 21.3736H2.57879C1.54114 21.3736 0.69697 20.5295 0.69697 19.4918V8.71203C0.69697 7.67438 1.54114 6.83021 2.57879 6.83021H20.4212C21.4589 6.83021 22.303 7.67438 22.303 8.71203V19.4918ZM20.4212 6.13324H2.57879C1.83703 6.13324 1.16789 6.44846 0.69697 6.95148V3.50799C0.69697 2.47034 1.54114 1.62617 2.57879 1.62617H6.66768C7.45386 1.62617 8.0973 1.92833 8.69256 2.57707C8.69377 2.57837 8.69498 2.57972 8.69623 2.58097L10.5035 4.4909C10.5693 4.56046 10.6608 4.59991 10.7566 4.59991H20.4212C21.4589 4.59991 22.303 5.44408 22.303 6.48172V6.95148C21.8321 6.44846 21.163 6.13324 20.4212 6.13324Z" fill="black"/>
<path d="M20.0499 8.36377H15.2176C15.0252 8.36377 14.8691 8.51975 14.8691 8.71225C14.8691 8.90476 15.0252 9.06074 15.2176 9.06074H20.0499C20.2424 9.06074 20.3984 8.90476 20.3984 8.71225C20.3984 8.51975 20.2424 8.36377 20.0499 8.36377Z" fill="black"/>
<path d="M20.0499 10.2222H15.2176C15.0252 10.2222 14.8691 10.3781 14.8691 10.5707C14.8691 10.7632 15.0252 10.9191 15.2176 10.9191H20.0499C20.2424 10.9191 20.3984 10.7632 20.3984 10.5707C20.3984 10.3781 20.2424 10.2222 20.0499 10.2222Z" fill="black"/>
</svg>
